HIERARCHY
ROOT hip
{
  OFFSET 0 0 0
  CHANNELS 6 Xposition Yposition Zposition Zrotation Yrotation Xrotation
  JOINT abdomen
  {
    OFFSET 0 20.6881 -0.73152
    CHANNELS 3 Zrotation Xrotation Yrotation
    JOINT chest
    {
      OFFSET 0 11.7043 -0.48768
      CHANNELS 3 Zrotation Xrotation Yrotation
      JOINT neck
      {
        OFFSET 0 22.1894 -2.19456
        CHANNELS 3 Zrotation Xrotation Yrotation
        JOINT head
        {
          OFFSET -0.24384 7.07133 1.2192
          CHANNELS 3 Zrotation Xrotation Yrotation
          JOINT leftEye
          {
            OFFSET 4.14528 8.04674 8.04672
            CHANNELS 3 Zrotation Xrotation Yrotation
            End Site
            {
              OFFSET 1 0 0
            }
          }
          JOINT rightEye
          {
            OFFSET -3.6576 8.04674 8.04672
            CHANNELS 3 Zrotation Xrotation Yrotation
            End Site
            {
              OFFSET 1 0 0
            }
          }
        }
      }
      JOINT rCollar
      {
        OFFSET -2.68224 19.2634 -4.8768
        CHANNELS 3 Zrotation Xrotation Yrotation
        JOINT rShldr
        {
          OFFSET -8.77824 -1.95073 1.46304
          CHANNELS 3 Zrotation Xrotation Yrotation
          JOINT rForeArm
          {
            OFFSET -28.1742 -1.7115 0.48768
            CHANNELS 3 Zrotation Xrotation Yrotation
            JOINT rHand
            {
              OFFSET -22.5879 0.773209 7.07136
              CHANNELS 3 Zrotation Xrotation Yrotation
              JOINT rThumb1
              {
                OFFSET -1.2192 -0.487915 3.41376
                CHANNELS 3 Zrotation Xrotation Yrotation
                JOINT rThumb2
                {
                  OFFSET -3.37035 -0.52449 3.41376
                  CHANNELS 3 Zrotation Xrotation Yrotation
                  End Site
                  {
                    OFFSET -1.78271 -1.18214 1.43049
                  }
                }
              }
              JOINT rIndex1
              {
                OFFSET -7.75947 0.938293 5.60832
                CHANNELS 3 Zrotation Xrotation Yrotation
                JOINT rIndex2
                {
                  OFFSET -2.54057 -0.884171 1.56538
                  CHANNELS 3 Zrotation Xrotation Yrotation
                  End Site
                  {
                    OFFSET -1.62519 -0.234802 1.16502
                  }
                }
              }
              JOINT rMid1
              {
                OFFSET -8.24714 1.18213 3.41376
                CHANNELS 3 Zrotation Xrotation Yrotation
                JOINT rMid2
                {
                  OFFSET -3.10165 -0.590103 1.0647
                  CHANNELS 3 Zrotation Xrotation Yrotation
                  End Site
                  {
                    OFFSET -2.48547 -0.328903 0.83742
                  }
                }
              }
              JOINT rRing1
              {
                OFFSET -8.82822 0.546677 1.51678
                CHANNELS 3 Zrotation Xrotation Yrotation
                JOINT rRing2
                {
                  OFFSET -2.60934 -0.819778 -0.0198488
                  CHANNELS 3 Zrotation Xrotation Yrotation
                  End Site
                  {
                    OFFSET -2.33842 -0.294052 0.168128
                  }
                }
              }
              JOINT rPinky1
              {
                OFFSET -8.27202 -0.0477905 -0.4584
                CHANNELS 3 Zrotation Xrotation Yrotation
                JOINT rPinky2
                {
                  OFFSET -1.82734 -0.647385 -0.700984
                  CHANNELS 3 Zrotation Xrotation Yrotation
                  End Site
                  {
                    OFFSET -1.69225 -0.51767 -0.607171
                  }
                }
              }
            }
          }
        }
      }
      JOINT lCollar
      {
        OFFSET 2.68224 19.2634 -4.8768
        CHANNELS 3 Zrotation Xrotation Yrotation
        JOINT lShldr
        {
          OFFSET 8.77824 -1.95073 1.46304
          CHANNELS 3 Zrotation Xrotation Yrotation
          JOINT lForeArm
          {
            OFFSET 28.1742 -1.7115 0.48768
            CHANNELS 3 Zrotation Xrotation Yrotation
            JOINT lHand
            {
              OFFSET 22.5879 0.773209 7.07136
              CHANNELS 3 Zrotation Xrotation Yrotation
              JOINT lThumb1
              {
                OFFSET 1.2192 -0.487915 3.41376
                CHANNELS 3 Zrotation Xrotation Yrotation
                JOINT lThumb2
                {
                  OFFSET 3.37035 -0.52449 3.41376
                  CHANNELS 3 Zrotation Xrotation Yrotation
                  End Site
                  {
                    OFFSET 1.78271 -1.18214 1.43049
                  }
                }
              }
              JOINT lIndex1
              {
                OFFSET 7.75947 0.938293 5.60832
                CHANNELS 3 Zrotation Xrotation Yrotation
                JOINT lIndex2
                {
                  OFFSET 2.54057 -0.884171 1.56538
                  CHANNELS 3 Zrotation Xrotation Yrotation
                  End Site
                  {
                    OFFSET 1.62519 -0.234802 1.16502
                  }
                }
              }
              JOINT lMid1
              {
                OFFSET 8.24714 1.18213 3.41376
                CHANNELS 3 Zrotation Xrotation Yrotation
                JOINT lMid2
                {
                  OFFSET 3.10165 -0.590103 1.0647
                  CHANNELS 3 Zrotation Xrotation Yrotation
                  End Site
                  {
                    OFFSET 2.48547 -0.328903 0.83742
                  }
                }
              }
              JOINT lRing1
              {
                OFFSET 8.82822 0.546677 1.51678
                CHANNELS 3 Zrotation Xrotation Yrotation
                JOINT lRing2
                {
                  OFFSET 2.60934 -0.819778 -0.0198488
                  CHANNELS 3 Zrotation Xrotation Yrotation
                  End Site
                  {
                    OFFSET 2.33842 -0.294052 0.168128
                  }
                }
              }
              JOINT lPinky1
              {
                OFFSET 8.27202 -0.0477905 -0.4584
                CHANNELS 3 Zrotation Xrotation Yrotation
                JOINT lPinky2
                {
                  OFFSET 1.82734 -0.647385 -0.700984
                  CHANNELS 3 Zrotation Xrotation Yrotation
                  End Site
                  {
                    OFFSET 1.69225 -0.51767 -0.607171
                  }
                }
              }
            }
          }
        }
      }
    }
  }
  JOINT rButtock
  {
    OFFSET -8.77824 4.35084 1.2192
    CHANNELS 3 Zrotation Xrotation Yrotation
    JOINT rThigh
    {
      OFFSET 0 -1.70687 -2.19456
      CHANNELS 3 Zrotation Xrotation Yrotation
      JOINT rShin
      {
        OFFSET 0 -36.8199 0.73152
        CHANNELS 3 Zrotation Xrotation Yrotation
        JOINT rFoot
        {
          OFFSET 0.73152 -45.1104 -5.12064
          CHANNELS 3 Zrotation Xrotation Yrotation
          End Site
          {
            OFFSET -1.1221 -3.69964 12.103
          }
        }
      }
    }
  }
  JOINT lButtock
  {
    OFFSET 8.77824 4.35084 1.2192
    CHANNELS 3 Zrotation Xrotation Yrotation
    JOINT lThigh
    {
      OFFSET 0 -1.70687 -2.19456
      CHANNELS 3 Zrotation Xrotation Yrotation
      JOINT lShin
      {
        OFFSET 0 -36.8199 0.73152
        CHANNELS 3 Zrotation Xrotation Yrotation
        JOINT lFoot
        {
          OFFSET -0.73152 -45.1104 -5.12064
          CHANNELS 3 Zrotation Xrotation Yrotation
          End Site
          {
            OFFSET 1.1221 -3.69964 12.103
          }
        }
      }
    }
  }
}
MOTION
Frames:	6
Frame Time:	0.00833333
0.0 85.1887 0.0 0.0 -0.0 0.0 0.5591815 6.825919e-05 0.013988063 0.15450507 3.7720954e-05 0.027976433 0.0 0.0 -0.0 0.0 0.0 -0.0 -0.0 0.0 -0.0 -0.0 0.0 -0.0 -0.0 0.0 -0.0 -0.0 0.0 -0.0 -0.0 -0.0 -0.0 0.0 0.0 -0.0 0.0 0.0 -0.0 0.0 0.0 -0.0 0.0 0.0 -0.0 7.7309017 5.4749126 0.4173222 0.0 0.0 -0.0 2.9055667 0.96507555 0.1030082 0.0 0.0 -0.0 10.278597 0.7318811 0.026273513 0.0 0.0 -0.0 2.2216635 -0.733451 -0.208321 0.0 0.0 -0.0 0.0 0.0 -0.0 0.0 0.0 -0.0 -0.0 -0.0 -0.0 0.0 0.0 -0.0 0.0 0.0 -0.0 0.0 0.0 -0.0 -7.7309017 5.4749126 -0.4173222 0.0 0.0 -0.0 -2.9055667 0.96507555 -0.1030082 0.0 0.0 -0.0 -10.278597 0.7318811 -0.026273513 0.0 0.0 -0.0 -2.2216635 -0.733451 0.208321 -0.0 0.0 -0.0 0.92302036 -4.505184 -0.07742432 -0.0 2.6085331 -0.0 -0.5024847 1.896837 0.09456033 0.0 0.0 0.0 -0.07096498 -2.3522384 0.0183296 0.0007723399 -1.2911943 0.0685411 0.49455336 3.6433744 -0.12942888
2.8729 84.2255 -3.184703 -103.16802 86.47031 -95.48285 1.6257125 -1.4432738 0.47318313 -0.39554855 1.1540749 0.16038586 -1.7221683 2.4978354 -3.6143928 2.8502076 -4.4685388 -6.568352 -0.0 0.0 -0.0 -0.0 0.0 -0.0 -0.0 -0.0 -0.0 23.265797 16.738203 -0.5594523 -26.575703 -24.219097 13.8985 0.01486653 -2.7689097 -0.38766018 -0.0 -0.0 -0.0 -0.0 -0.0 -0.0 -0.0 -0.0 -0.0 7.7309017 5.4749126 0.4173222 -0.0 -0.0 -0.0 2.9055667 0.96507555 0.1030082 -0.0 -0.0 -0.0 10.278597 0.7318811 0.026273513 -0.0 -0.0 -0.0 2.2216635 -0.733451 -0.208321 -0.0 -0.0 -0.0 -19.306599 21.200686 -4.2401333 27.057098 -24.629805 -13.709505 -0.065885104 -5.7508764 0.7935557 0.0 0.0 0.0 0.0 0.0 0.0 0.0 0.0 0.0 -7.7309017 5.4749126 -0.4173222 0.0 0.0 0.0 -2.9055667 0.96507555 -0.1030082 0.0 0.0 0.0 -10.278597 0.7318811 -0.026273513 0.0 0.0 0.0 -2.2216635 -0.733451 0.208321 -0.0 0.0 -0.0 -0.57243276 -10.153807 1.5301946 -0.0009735866 5.6148043 0.019853858 -0.6892495 0.5477368 -4.627741 0.0 0.0 0.0 1.0146863 -4.0471745 1.5249687 -0.0 2.385278 -0.0 0.46224186 -2.333678 0.15141064
2.3292 84.1958 -3.7433631 -97.2234 87.452545 -89.64286 2.8324873 -2.9938788 0.95742595 -0.98868227 2.3762681 0.3031255 -3.2311945 5.0696926 -7.4652286 4.7929964 -8.891132 -13.647692 -0.0 0.0 -0.0 -0.0 0.0 -0.0 -0.0 -0.0 -0.0 48.277603 34.432495 -1.338115 -38.024197 -44.4201 37.901203 -0.011851624 -5.6998405 -0.8007536 -0.0 -0.0 -0.0 -0.0 -0.0 -0.0 -0.0 -0.0 -0.0 7.7309017 5.4749126 0.4173222 -0.0 -0.0 -0.0 2.9055667 0.96507555 0.1030082 -0.0 -0.0 -0.0 10.278597 0.7318811 0.026273513 -0.0 -0.0 -0.0 2.2216635 -0.733451 -0.208321 -0.0 -0.0 -0.0 -35.172897 43.201702 -11.199102 38.6921 -45.2703 -37.863506 0.03791995 -11.833496 1.660397 0.0 0.0 0.0 0.0 0.0 0.0 0.0 0.0 0.0 -7.7309017 5.4749126 -0.4173222 0.0 0.0 0.0 -2.9055667 0.96507555 -0.1030082 0.0 0.0 0.0 -10.278597 0.7318811 -0.026273513 0.0 0.0 0.0 -2.2216635 -0.733451 0.208321 -0.0 0.0 -0.0 -1.7456677 -16.09681 3.355239 -0.0035850015 8.760119 0.046804197 -1.1170229 -0.8150667 -9.61712 0.0 0.0 0.0 2.3138585 -5.862937 3.1188238 0.0036346882 6.312828 -0.065910734 0.49129897 -8.665528 0.45052844
1.8254001 84.1347 -4.198343 -84.44271 88.099365 -77.101746 3.8276093 -4.3227754 1.3905189 -1.5128154 3.4707074 0.43065968 -4.2207575 7.373949 -10.924307 5.4802256 -12.694785 -20.158216 -0.0 0.0 -0.0 -0.0 0.0 -0.0 -0.0 -0.0 -0.0 71.24321 50.1898 -2.5109534 -31.256596 -49.470104 71.188805 -0.07119975 -8.305076 -1.173822 -0.0 -0.0 -0.0 -0.0 -0.0 -0.0 -0.0 -0.0 -0.0 7.7309017 5.4749126 0.4173222 -0.0 -0.0 -0.0 2.9055667 0.96507555 0.1030082 -0.0 -0.0 -0.0 10.278597 0.7318811 0.026273513 -0.0 -0.0 -0.0 2.2216635 -0.733451 -0.208321 -0.0 -0.0 -0.0 -39.896496 61.3802 -25.403902 31.255192 -50.434002 -72.15281 0.29599565 -17.238981 2.4804106 0.0 0.0 0.0 0.0 0.0 0.0 0.0 0.0 0.0 -7.7309017 5.4749126 -0.4173222 0.0 0.0 0.0 -2.9055667 0.96507555 -0.1030082 0.0 0.0 0.0 -10.278597 0.7318811 -0.026273513 0.0 0.0 0.0 -2.2216635 -0.733451 0.208321 -0.0 0.0 -0.0 -2.550289 -21.386799 5.018714 -0.0076547028 11.627327 0.075180806 -1.724572 -2.0811372 -14.083894 0.0 0.0 0.0 3.455104 -7.4182105 4.556686 0.030774152 9.738277 -0.12818928 0.5776094 -14.286687 0.73813313
1.3912001 84.094505 -4.618853 -68.97796 88.546936 -61.979603 4.2428064 -5.0983953 1.6928493 -1.8543029 4.2463284 0.52239317 -4.5602093 9.120427 -13.331893 5.07398 -15.591698 -24.8623 -0.0 0.0 -0.0 -0.0 0.0 -0.0 -0.0 -0.0 -0.0 88.0894 61.123894 -4.0418 -27.122896 -43.677505 90.80731 -0.1267207 -10.097684 -1.4342661 -0.0 -0.0 -0.0 -0.0 -0.0 -0.0 -0.0 -0.0 -0.0 7.7309017 5.4749126 0.4173222 -0.0 -0.0 -0.0 2.9055667 0.96507555 0.1030082 -0.0 -0.0 -0.0 10.278597 0.7318811 0.026273513 -0.0 -0.0 -0.0 2.2216635 -0.733451 -0.208321 -0.0 -0.0 -0.0 -27.711807 71.0437 -49.998096 26.834703 -44.444202 -92.331894 0.55654407 -20.965284 3.0841205 0.0 0.0 0.0 0.0 0.0 0.0 0.0 0.0 0.0 -7.7309017 5.4749126 -0.4173222 0.0 0.0 0.0 -2.9055667 0.96507555 -0.1030082 0.0 0.0 0.0 -10.278597 0.7318811 -0.026273513 0.0 0.0 0.0 -2.2216635 -0.733451 0.208321 -0.0 0.0 -0.0 -3.2116778 -25.1111 6.020514 -0.037125073 13.799387 0.1051171 -2.3560963 -3.171458 -17.234095 0.0 0.0 0.0 4.004607 -8.3395195 5.5802712 0.042111672 11.90848 -0.1702055 0.6797106 -18.132504 0.9725626
0.9838 84.0574 -4.958763 -39.93804 88.66616 -33.178944 3.727563 -5.052803 1.8126804 -1.9168949 4.581394 0.56412804 -4.215737 10.216202 -14.216496 3.9082975 -17.852495 -26.8334 -0.0 0.0 -0.0 -0.0 0.0 -0.0 -0.0 -0.0 -0.0 95.11042 65.33841 -4.9365797 -27.170391 -39.971912 95.95639 -0.14442164 -10.76922 -1.5321234 -0.0 0.0 0.0 -0.0 0.0 0.0 -0.0 0.0 0.0 7.7309017 5.4749126 0.4173222 -0.0 0.0 0.0 2.9055667 0.96507555 0.1030082 -0.0 0.0 0.0 10.278597 0.7318811 0.026273513 -0.0 0.0 0.0 2.2216635 -0.733451 -0.208321 -0.0 -0.0 -0.0 -17.370905 73.00521 -64.89639 26.883703 -40.678596 -97.6758 0.6993693 -22.345144 3.3234093 0.0 0.0 -0.0 0.0 0.0 -0.0 0.0 0.0 -0.0 -7.7309017 5.4749126 -0.4173222 0.0 0.0 -0.0 -2.9055667 0.96507555 -0.1030082 0.0 0.0 -0.0 -10.278597 0.7318811 -0.026273513 0.0 0.0 -0.0 -2.2216635 -0.733451 0.208321 -0.0 0.0 -0.0 -4.1603374 -26.651703 5.9045143 -0.0418112 14.946394 0.13245726 -2.8608186 -4.1385765 -18.573198 0.0 0.0 0.0 3.546984 -8.305205 6.037946 0.03945394 12.254313 -0.18219064 0.732475 -19.486996 1.0803307
